<mxfile host="app.diagrams.net" modified="2024-06-12T11:26:19.784Z" agent="Mozilla/5.0 (Windows NT 10.0; Win64; x64) AppleWebKit/537.36 (KHTML, like Gecko) Chrome/109.0.0.0 Safari/537.36 SLBrowser/9.0.3.5211 SLBChan/11" version="24.5.3" etag="wZlJ9NpTv93XPXopxZTb" type="github">
  <diagram name="第 1 页" id="v5SCtlxNHOTIFZ1fs0Yz">
    <mxGraphModel>
      <root>
        <mxCell id="0" />
        <mxCell id="1" parent="0" />
      </root>
    </mxGraphModel>
  </diagram>
</mxfile>
